HIERARCHY
ROOT Hips
{
	OFFSET 0.000000 0.000000 0.000000
	CHANNELS 6 Xposition Yposition Zposition Zrotation Yrotation Xrotation 
	JOINT LHipJoint
	{
		OFFSET 0.000000 0.000000 0.000000
		CHANNELS 3 Zrotation Yrotation Xrotation
		JOINT LeftUpLeg
		{
			OFFSET 1.363060 -1.794630 0.839290
			CHANNELS 3 Zrotation Yrotation Xrotation
			JOINT LeftLeg
			{
				OFFSET 2.448110 -6.726130 0.000000
				CHANNELS 3 Zrotation Yrotation Xrotation
				JOINT LeftFoot
				{
					OFFSET 2.562200 -7.039590 0.000000
					CHANNELS 3 Zrotation Yrotation Xrotation
					JOINT LeftToeBase
					{
						OFFSET 0.157640 -0.433110 2.322550
						CHANNELS 3 Zrotation Yrotation Xrotation
						End Site
						{
							OFFSET 0.000000 0.000000 0.000000
						}
					}
				}
			}
		}
	}
	JOINT RHipJoint
	{
		OFFSET 0.000000 0.000000 0.000000
		CHANNELS 3 Zrotation Yrotation Xrotation
		JOINT RightUpLeg
		{
			OFFSET -1.305520 -1.794630 0.839290
			CHANNELS 3 Zrotation Yrotation Xrotation
			JOINT RightLeg
			{
				OFFSET -2.542530 -6.985550 0.000000
				CHANNELS 3 Zrotation Yrotation Xrotation
				JOINT RightFoot
				{
					OFFSET -2.568260 -7.056230 0.000000
					CHANNELS 3 Zrotation Yrotation Xrotation
					JOINT RightToeBase
					{
						OFFSET -0.164730 -0.452590 2.363150
						CHANNELS 3 Zrotation Yrotation Xrotation
						End Site
						{
							OFFSET 0.000000 0.000000 0.000000
						}
					}
				}
			}
		}
	}
	JOINT LowerBack
	{
		OFFSET 0.000000 0.000000 0.000000
		CHANNELS 3 Zrotation Yrotation Xrotation
		JOINT Spine
		{
			OFFSET 0.028270 2.035590 -0.193380
			CHANNELS 3 Zrotation Yrotation Xrotation
			JOINT Spine1
			{
				OFFSET 0.056720 2.048850 -0.042750
				CHANNELS 3 Zrotation Yrotation Xrotation
				JOINT Neck
				{
					OFFSET 0.000000 0.000000 0.000000
					CHANNELS 3 Zrotation Yrotation Xrotation
					JOINT Neck1
					{
						OFFSET -0.054170 1.746240 0.172020
						CHANNELS 3 Zrotation Yrotation Xrotation
						JOINT Head
						{
							OFFSET 0.104070 1.761360 -0.123970
							CHANNELS 3 Zrotation Yrotation Xrotation
							End Site
							{
								OFFSET 0.000000 0.000000 0.000000
							}
						}
					}
				}
				JOINT LeftShoulder
				{
					OFFSET 0.000000 0.000000 0.000000
					CHANNELS 3 Zrotation Yrotation Xrotation
					JOINT LeftArm
					{
						OFFSET 3.362410 1.200890 -0.311210
						CHANNELS 3 Zrotation Yrotation Xrotation
						JOINT LeftForeArm
						{
							OFFSET 4.983000 -0.000000 -0.000000
							CHANNELS 3 Zrotation Yrotation Xrotation
							JOINT LeftHand
							{
								OFFSET 3.483560 -0.000000 -0.000000
								CHANNELS 3 Zrotation Yrotation Xrotation
								JOINT LeftFingerBase
								{
									OFFSET 0.000000 0.000000 0.000000
									CHANNELS 3 Zrotation Yrotation Xrotation
									JOINT LeftHandIndex1
									{
										OFFSET 0.715260 -0.000000 -0.000000
										CHANNELS 3 Zrotation Yrotation Xrotation
										End Site
										{
											OFFSET 0.000000 0.000000 0.000000
										}
									}
								}
								JOINT LThumb
								{
									OFFSET 0.000000 0.000000 0.000000
									CHANNELS 3 Zrotation Yrotation Xrotation
									End Site
									{
										OFFSET 0.000000 0.000000 0.000000
									}
								}
							}
						}
					}
				}
				JOINT RightShoulder
				{
					OFFSET 0.000000 0.000000 0.000000
					CHANNELS 3 Zrotation Yrotation Xrotation
					JOINT RightArm
					{
						OFFSET -3.136600 1.374050 -0.404650
						CHANNELS 3 Zrotation Yrotation Xrotation
						JOINT RightForeArm
						{
							OFFSET -5.241900 -0.000000 -0.000000
							CHANNELS 3 Zrotation Yrotation Xrotation
							JOINT RightHand
							{
								OFFSET -3.444170 -0.000000 -0.000000
								CHANNELS 3 Zrotation Yrotation Xrotation
								JOINT RightFingerBase
								{
									OFFSET 0.000000 0.000000 0.000000
									CHANNELS 3 Zrotation Yrotation Xrotation
									JOINT RightHandIndex1
									{
										OFFSET -0.622530 -0.000000 -0.000000
										CHANNELS 3 Zrotation Yrotation Xrotation
										End Site
										{
											OFFSET 0.000000 0.000000 0.000000
										}
									}
								}
								JOINT RThumb
								{
									OFFSET 0.000000 0.000000 0.000000
									CHANNELS 3 Zrotation Yrotation Xrotation
									End Site
									{
										OFFSET 0.000000 0.000000 0.000000
									}
								}
							}
						}
					}
				}
			}
		}
	}
}
MOTION
Frames: 5
Frame Time: 0.008333
10.565865 17.120900 -26.378250 -177.178271 -51.176209 -176.434678 -5.861051 24.789216 -3.869204 -25.913887 -7.588286 -16.759558 7.601503 4.433600 33.995558 26.647853 1.455511 -11.114754 -4.763677 3.248970 -8.063900 5.287553 -27.710909 -4.419633 13.077659 0.905203 -24.605352 -11.670910 -16.282332 70.614714 -36.917519 8.714605 -0.967683 7.326005 -12.336238 -11.563337 1.546267 5.393421 17.063954 7.683195 6.070220 13.135721 -15.298829 -4.302574 -28.542805 -11.428159 23.271546 -14.433759 8.937207 22.551595 16.858182 2.823997 10.490990 -4.299307 4.617549 12.910217 4.901792 -72.655984 -14.259131 43.335579 0.679870 -41.341010 9.737403 11.461179 1.387048 9.189172 1.677545 15.413663 -0.000000 0.000000 0.000000 0.000000 0.000000 0.000000 0.000000 -7.841794 -41.186587 -6.393275 80.987125 1.470622 58.727650 5.951945 39.299082 20.454334 -4.500356 16.891544 9.781260 6.535704 -13.821033 0.000000 0.000000 0.000000 0.000000 0.000000 0.000000 0.000000 
10.550250 17.143850 -26.429850 -177.089028 -52.445459 -176.319465 -5.770937 24.526366 -3.695700 -25.810237 -7.736711 -16.636980 7.333130 4.143432 33.551204 26.734771 0.918950 -11.018516 -4.728077 3.148682 -7.987784 5.255225 -27.452152 -4.694815 13.286108 1.081321 -24.790566 -11.866904 -15.618550 69.527889 -36.209651 7.654292 -1.097557 7.097314 -11.488695 -11.635305 1.558809 5.425357 16.999855 7.912822 6.106535 13.141520 -15.453267 -4.463506 -28.535409 -11.425919 23.216417 -14.400189 8.866718 22.458214 16.879867 2.798227 10.459637 -4.281099 4.551065 12.813272 4.906690 -72.939479 -14.205156 43.587665 0.665821 -41.804610 9.867345 11.676739 1.020746 9.451495 1.593316 15.447746 -0.000000 0.000000 0.000000 0.000000 0.000000 0.000000 0.000000 -7.931099 -41.317241 -6.356518 80.967703 1.368042 58.574699 5.925240 39.317143 20.388214 -4.523829 16.934757 9.764532 6.484489 -13.808066 0.000000 0.000000 0.000000 0.000000 0.000000 0.000000 0.000000 
10.535640 17.166950 -26.479800 -176.980406 -53.733605 -176.198964 -5.695179 24.271682 -3.578478 -25.703991 -7.868035 -16.558048 7.074330 3.877522 33.203226 26.862710 0.377956 -10.935298 -4.668328 3.051492 -7.862056 5.198249 -27.181418 -4.943265 13.526723 1.266807 -24.921840 -11.960091 -14.900183 68.168002 -35.358673 6.739527 -1.377053 6.959034 -10.638272 -11.850509 1.584557 5.461465 16.957320 8.123213 6.150006 13.070830 -15.578147 -4.616725 -28.511369 -11.411075 23.124455 -14.358789 8.777575 22.333490 16.915589 2.765704 10.427161 -4.254002 4.522633 12.729226 4.923166 -73.279164 -14.123082 43.842662 0.604388 -42.270611 9.983486 11.906708 0.778214 9.713331 1.508362 15.496029 -0.000000 0.000000 0.000000 0.000000 0.000000 0.000000 0.000000 -8.049116 -41.433935 -6.319184 80.971554 1.264850 58.323810 6.000491 39.250997 20.198424 -4.383614 16.720818 9.564547 6.484600 -13.821898 0.000000 0.000000 0.000000 0.000000 0.000000 0.000000 0.000000 
10.516335 17.189300 -26.532000 -176.861975 -55.104743 -176.068001 -5.592388 23.972117 -3.402556 -25.629686 -8.086460 -16.415151 6.843890 3.527618 32.725421 26.925468 -0.166897 -10.852109 -4.634723 2.954936 -7.782872 5.108006 -26.803780 -5.195335 13.725711 1.238647 -24.775432 -11.966620 -14.238382 66.349904 -34.721054 5.902236 -2.176006 6.678770 -9.593100 -11.723506 1.616719 5.466089 16.813124 8.382849 6.165137 13.042464 -15.719397 -4.805214 -28.471173 -11.400526 23.078339 -14.307734 8.743194 22.241894 16.945889 2.743354 10.376476 -4.241607 4.477678 12.601824 4.950371 -73.560687 -13.993324 44.081155 0.440975 -42.724610 9.971733 11.958009 0.271328 9.813292 1.371832 15.522751 -0.000000 0.000000 0.000000 0.000000 0.000000 0.000000 0.000000 -8.158732 -41.574422 -6.263366 80.946575 1.167494 58.293457 5.861512 39.324682 20.303780 -4.590929 16.921423 9.770967 6.412297 -13.804420 0.000000 0.000000 0.000000 0.000000 0.000000 0.000000 0.000000 
10.503120 17.213600 -26.579250 -176.701670 -56.397676 -175.942172 -5.518953 23.636441 -3.280220 -25.482439 -8.296386 -16.365783 6.572400 3.218854 32.295423 26.951903 -0.658050 -10.659080 -4.624213 2.866878 -7.756544 5.008481 -26.482340 -5.482953 14.075491 1.374930 -24.705645 -12.111637 -13.452062 64.567692 -34.418672 5.381037 -2.727451 6.442141 -8.608742 -11.743977 1.602357 5.536924 16.771035 8.717605 6.254430 12.947993 -15.840783 -5.011833 -28.442037 -11.368345 22.908026 -14.251217 8.608469 22.049864 16.923821 2.685801 10.320818 -4.245763 4.430168 12.521127 5.000621 -73.873386 -13.839316 44.410295 0.400983 -43.246109 10.138227 12.174833 -0.117454 10.105299 1.224198 15.571518 -0.000000 0.000000 0.000000 0.000000 0.000000 0.000000 0.000000 -8.290543 -41.660086 -6.244298 80.938447 1.102932 58.168945 5.820666 39.307823 20.277808 -4.609370 16.937430 9.765595 6.390612 -13.808647 0.000000 0.000000 0.000000 0.000000 0.000000 0.000000 0.000000 
